HIERARCHY
ROOT Hips
{
  OFFSET 51.5162 86.5831 5.23392
  CHANNELS 6 Xposition Yposition Zposition Zrotation Xrotation Yrotation
  JOINT spine
  {
    OFFSET 0 6.84637 0.3937
    CHANNELS 3 Zrotation Xrotation Yrotation
    JOINT spine1
    {
      OFFSET 0 9.49621 0
      CHANNELS 3 Zrotation Xrotation Yrotation
      JOINT spine2
      {
        OFFSET 0 9.09909 0
        CHANNELS 3 Zrotation Xrotation Yrotation
        JOINT Neck
        {
          OFFSET 0 23.3612 1.11378
          CHANNELS 3 Zrotation Xrotation Yrotation
          JOINT Head
          {
            OFFSET 0 7.05802 0
            CHANNELS 3 Zrotation Xrotation Yrotation
            End Site
            {
              OFFSET 0 17.0844 -5.63419
            }
          }
        }
        JOINT RightShoulder
        {
          OFFSET -3.83136 9.82631 -0.533491
          CHANNELS 3 Zrotation Xrotation Yrotation
          JOINT RightArm
          {
            OFFSET 0 12.8881 0
            CHANNELS 3 Zrotation Xrotation Yrotation
            JOINT RightArmRoll
            {
              OFFSET 0 6.50617 0
              CHANNELS 3 Zrotation Xrotation Yrotation
              JOINT RightForeArm
              {
                OFFSET 0 18.9501 0
                CHANNELS 3 Zrotation Xrotation Yrotation
                JOINT RightForeArmRoll
                {
                  OFFSET 0 7.30092 0
                  CHANNELS 3 Zrotation Xrotation Yrotation
                  JOINT RightHand
                  {
                    OFFSET 0 14.6514 0
                    CHANNELS 3 Zrotation Xrotation Yrotation
                    End Site
                    {
                      OFFSET 0 0 0
                    }
                  }
                }
              }
            }
          }
        }
        JOINT LeftShoulder
        {
          OFFSET 3.83136 9.82631 -0.533491
          CHANNELS 3 Zrotation Xrotation Yrotation
          JOINT LeftArm
          {
            OFFSET 0 12.8881 0
            CHANNELS 3 Zrotation Xrotation Yrotation
            JOINT LeftArmRoll
            {
              OFFSET 0 6.50616 0
              CHANNELS 3 Zrotation Xrotation Yrotation
              JOINT LeftForeArm
              {
                OFFSET 0 18.9501 0
                CHANNELS 3 Zrotation Xrotation Yrotation
                JOINT LeftForeArmRoll
                {
                  OFFSET 0 7.30092 0
                  CHANNELS 3 Zrotation Xrotation Yrotation
                  JOINT LeftHand
                  {
                    OFFSET 0 14.6514 0
                    CHANNELS 3 Zrotation Xrotation Yrotation
                    End Site
                    {
                      OFFSET 0 0 0
                    }
                  }
                }
              }
            }
          }
        }
      }
    }
  }
  JOINT RightUpLeg
  {
    OFFSET -6.06837 -1.11278 -0.933477
    CHANNELS 3 Zrotation Xrotation Yrotation
    JOINT RightUpLegRoll
    {
      OFFSET 0 17.1796 0
      CHANNELS 3 Zrotation Xrotation Yrotation
      JOINT RightLeg
      {
        OFFSET 0 -21.2743 0
        CHANNELS 3 Zrotation Xrotation Yrotation
        JOINT RightLegRoll
        {
          OFFSET 0 21.3439 0
          CHANNELS 3 Zrotation Xrotation Yrotation
          JOINT RightFoot
          {
            OFFSET 0 17.7652 0
            CHANNELS 3 Zrotation Xrotation Yrotation
            JOINT RightToeBase
            {
              OFFSET 0 14.8508 0
              CHANNELS 3 Zrotation Xrotation Yrotation
              End Site
              {
                OFFSET 0.0062947 7.19213 -0.829005
              }
            }
          }
        }
      }
    }
  }
  JOINT LeftUpLeg
  {
    OFFSET 6.06837 -1.11278 -0.933477
    CHANNELS 3 Zrotation Xrotation Yrotation
    JOINT LeftUpLegRoll
    {
      OFFSET 0 17.1797 0
      CHANNELS 3 Zrotation Xrotation Yrotation
      JOINT LeftLeg
      {
        OFFSET 0 21.2742 0
        CHANNELS 3 Zrotation Xrotation Yrotation
        JOINT LeftLegRoll
        {
          OFFSET 0 21.5412 0
          CHANNELS 3 Zrotation Xrotation Yrotation
          JOINT LeftFoot
          {
            OFFSET 0 17.5679 0
            CHANNELS 3 Zrotation Xrotation Yrotation
            JOINT LeftToeBase
            {
              OFFSET 0 14.8508 0
              CHANNELS 3 Zrotation Xrotation Yrotation
              End Site
              {
                OFFSET -0.0282102 7.19213 -0.829005
              }
            }
          }
        }
      }
    }
  }
}
MOTION
Frames: 8
Frame Time: 0.00208333
50.9995 86.6367 3.81577 0.0387658 -3.77115 -2.85462 1.35902 -1.4302 1.14892 2.74103 1.16717 2.15498 2.7171 2.81069 2.11023 -23.7296 10.6217 -1.65176 19.1114 8.55545 -8.16637 49.9739 -5.97722 -3.18913 106.809 27.6317 7.01552 5.82591e-007 2.38309e-007 -2.9597e-006 19.8845 0.154015 -0.677652 -9.25117e-007 2.17194e-006 -3.10121 8.0294 -4.95143 0.697699 -75.0961 -8.14086 5.42971 -92.3262 24.9764 -22.9 1.90658e-005 -4.00587e-007 2.26455e-006 -18.1027 0.228909 -0.771047 -4.91817e-006 5.44818e-007 3 -8.0292 -4.95143 -0.697685 179.318 12.7107 -1.36165 180 7.01499e-015 178.733 175.693 23.5605 -179.535 -5.53619e-007 2.66626e-006 0.613217 -23.4183 70.3825 21.9403 8.13649 25.2327 -3.48774 -177.916 9.95466 0.0105844 4.54188e-006 -4.6773e-006 -0.981653 -1.25862 -25.1019 0.646084 1.96552e-006 -4.00893e-006 -0.622999 23.5168 74.3923 -26.6152 -8.13649 25.2327 3.48774 
51.0063 86.6344 3.81466 0.0409702 -3.78338 -2.85373 1.35903 -1.42881 1.15123 2.74056 1.17001 2.16035 2.71655 2.81352 2.11561 -23.7117 10.6235 -1.65964 19.0936 8.54836 -8.16857 49.9845 -5.98793 -3.19766 106.826 27.6159 6.87154 5.82591e-007 2.38309e-007 -2.9597e-006 19.9474 0.154058 -0.649695 -9.25117e-007 2.17194e-006 -3.09979 8.0294 -4.95143 0.697699 -75.0817 -8.13275 5.42576 -92.3504 24.9867 -22.8976 1.90658e-005 -4.00587e-007 2.26455e-006 -18.0983 0.222089 -0.770799 -4.91817e-006 5.44818e-007 3 -8.0292 -4.95143 -0.697685 179.316 12.7022 -1.36156 180 7.01499e-015 178.733 175.697 23.5704 -179.536 -5.53619e-007 2.66626e-006 0.613217 -23.4222 70.3884 21.9468 8.13649 25.2327 -3.48774 -177.92 9.942 0.0112185 4.54188e-006 -4.6773e-006 -0.981644 -1.25908 -25.1048 0.645829 1.96552e-006 -4.00893e-006 -0.622999 23.5211 74.3956 -26.6193 -8.13649 25.2327 3.48774 
51.0115 86.645 3.82478 0.0432127 -3.79592 -2.85279 1.35905 -1.42735 1.1536 2.74008 1.17299 2.16588 2.71598 2.8165 2.12115 -23.6933 10.6252 -1.66797 19.0749 8.5409 -8.17095 49.9957 -5.99909 -3.20656 106.843 27.5998 6.7284 5.82591e-007 2.38309e-007 -2.9597e-006 20.0105 0.154088 -0.622028 -9.25117e-007 2.17194e-006 -3.09841 8.0294 -4.95143 0.697699 -75.0667 -8.12434 5.42166 -92.3757 24.9975 -22.8953 1.90658e-005 -4.00587e-007 2.26455e-006 -18.0935 0.21502 -0.770546 -4.91817e-006 5.44818e-007 3 -8.0292 -4.95143 -0.697685 179.315 12.6936 -1.36139 180 7.01499e-015 178.733 175.7 23.5807 -179.537 -5.53619e-007 2.66626e-006 0.613217 -23.4262 70.3943 21.9533 8.13649 25.2327 -3.48774 -177.924 9.92895 0.0119211 4.54188e-006 -4.6773e-006 -0.981631 -1.2595 -25.1077 0.645591 1.96552e-006 -4.00893e-006 -0.622999 23.5254 74.399 -26.6235 -8.13649 25.2327 3.48774 
51.0038 86.6432 3.83207 0.045482 -3.80868 -2.85181 1.35907 -1.42584 1.15601 2.73959 1.17607 2.17154 2.7154 2.81958 2.12682 -23.6744 10.6267 -1.6766 19.0557 8.53316 -8.17346 50.0072 -6.01057 -3.21572 106.859 27.5832 6.58588 5.82591e-007 2.38309e-007 -2.9597e-006 20.0738 0.154109 -0.594564 -9.25117e-007 2.17194e-006 -3.09703 8.0294 -4.95143 0.697699 -75.0513 -8.11573 5.41746 -92.4016 25.0086 -22.8929 1.90658e-005 -4.00587e-007 2.26455e-006 -18.0885 0.207777 -0.770289 -4.91817e-006 5.44818e-007 3 -8.0292 -4.95143 -0.697685 179.313 12.6849 -1.36116 180 7.01499e-015 178.733 175.704 23.5911 -179.538 -5.53619e-007 2.66626e-006 0.613217 -23.4303 70.4003 21.96 8.13649 25.2327 -3.48774 -177.928 9.91563 0.0126717 4.54188e-006 -4.6773e-006 -0.981615 -1.2599 -25.1105 0.645365 1.96552e-006 -4.00893e-006 -0.622999 23.5298 74.4025 -26.6276 -8.13649 25.2327 3.48774 
51.001 86.6304 3.82204 0.0477669 -3.82157 -2.8508 1.35909 -1.42431 1.15845 2.7391 1.17921 2.17726 2.71482 2.82271 2.13255 -23.6553 10.6282 -1.6854 19.0363 8.52528 -8.17605 50.0191 -6.02222 -3.22502 106.874 27.5664 6.44373 5.82591e-007 2.38309e-007 -2.9597e-006 20.1372 0.154125 -0.567217 -9.25117e-007 2.17194e-006 -3.09567 8.0294 -4.95143 0.697699 -75.0357 -8.10701 5.4132 -92.4279 25.0198 -22.8906 1.90658e-005 -4.00587e-007 2.26455e-006 -18.0834 0.200435 -0.77003 -4.91817e-006 5.44818e-007 3 -8.0292 -4.95143 -0.697685 179.312 12.6762 -1.36089 180 7.01499e-015 178.733 175.708 23.6016 -179.538 -5.53619e-007 2.66626e-006 0.613217 -23.4345 70.4064 21.9666 8.13649 25.2327 -3.48774 -177.932 9.90215 0.0134498 4.54188e-006 -4.6773e-006 -0.981597 -1.26029 -25.1134 0.645146 1.96552e-006 -4.00893e-006 -0.622999 23.5341 74.406 -26.6318 -8.13649 25.2327 3.48774 
51.0072 86.6314 3.814 0.0500561 -3.83448 -2.84978 1.35911 -1.42276 1.16089 2.73861 1.18236 2.18299 2.71423 2.82586 2.1383 -23.6362 10.6297 -1.69425 19.0167 8.51735 -8.17866 50.0309 -6.03392 -3.23436 106.889 27.5494 6.30171 5.82591e-007 2.38309e-007 -2.9597e-006 20.2006 0.154139 -0.539899 -9.25117e-007 2.17194e-006 -3.0943 8.0294 -4.95143 0.697699 -75.02 -8.09825 5.40893 -92.4543 25.0311 -22.8883 1.90658e-005 -4.00587e-007 2.26455e-006 -18.0783 0.193068 -0.76977 -4.91817e-006 5.44818e-007 3 -8.0292 -4.95143 -0.697685 179.31 12.6674 -1.36061 180 7.01499e-015 178.733 175.711 23.6121 -179.539 -5.53619e-007 2.66626e-006 0.613216 -23.4386 70.4125 21.9734 8.13649 25.2327 -3.48774 -177.936 9.88864 0.0142346 4.54188e-006 -4.6773e-006 -0.981579 -1.26066 -25.1162 0.644929 1.96552e-006 -4.00893e-006 -0.622999 23.5385 74.4095 -26.636 -8.13649 25.2327 3.48774 
51.011 86.6325 3.82626 0.0523381 -3.84734 -2.84878 1.35913 -1.42123 1.16332 2.73812 1.18548 2.1887 2.71365 2.82898 2.14401 -23.6172 10.6312 -1.70301 18.9973 8.5095 -8.18122 50.0427 -6.04553 -3.24363 106.904 27.5324 6.15957 5.82591e-007 2.38309e-007 -2.9597e-006 20.2639 0.154156 -0.512522 -9.25117e-007 2.17194e-006 -3.09294 8.0294 -4.95143 0.697699 -75.0045 -8.08956 5.40469 -92.4805 25.0424 -22.886 1.90658e-005 -4.00587e-007 2.26455e-006 -18.0732 0.185751 -0.769512 -4.91817e-006 5.44818e-007 3 -8.0292 -4.95143 -0.697685 179.308 12.6586 -1.36035 180 7.01499e-015 178.733 175.715 23.6226 -179.54 -5.53619e-007 2.66626e-006 0.613216 -23.4428 70.4185 21.98 8.13649 25.2327 -3.48774 -177.94 9.8752 0.0150056 4.54188e-006 -4.6773e-006 -0.981562 -1.26105 -25.1191 0.644708 1.96552e-006 -4.00893e-006 -0.622999 23.5428 74.4129 -26.6402 -8.13649 25.2327 3.48774 
51.0041 86.6322 3.82842 0.0546017 -3.86004 -2.84781 1.35915 -1.41974 1.16572 2.73763 1.18854 2.19432 2.71307 2.83203 2.14964 -23.5984 10.6328 -1.71155 18.9783 8.50185 -8.1837 50.0541 -6.05692 -3.25272 106.92 27.5153 6.01706 5.82591e-007 2.38309e-007 -2.9597e-006 20.3271 0.15418 -0.485 -9.25117e-007 2.17194e-006 -3.09156 8.0294 -4.95143 0.697699 -74.9892 -8.081 5.40052 -92.5062 25.0534 -22.8837 1.90658e-005 -4.00587e-007 2.26455e-006 -18.0683 0.178558 -0.769256 -4.91817e-006 5.44818e-007 3 -8.0292 -4.95143 -0.697685 179.307 12.65 -1.36013 180 7.01499e-015 178.733 175.718 23.6329 -179.54 -5.53619e-007 2.66626e-006 0.613216 -23.4469 70.4245 21.9867 8.13649 25.2327 -3.48774 -177.944 9.86196 0.0157423 4.54188e-006 -4.6773e-006 -0.981547 -1.26146 -25.122 0.644478 1.96552e-006 -4.00893e-006 -0.622999 23.5472 74.4164 -26.6444 -8.13649 25.2327 3.48774 
